<?xml version="1.0" encoding="UTF-8" standalone="no"?>
<svg
   xmlns:dc="http://purl.org/dc/elements/1.1/"
   xmlns:cc="http://creativecommons.org/ns#"
   xmlns:rdf="http://www.w3.org/1999/02/22-rdf-syntax-ns#"
   xmlns:svg="http://www.w3.org/2000/svg"
   xmlns="http://www.w3.org/2000/svg"
   xmlns:sodipodi="http://sodipodi.sourceforge.net/DTD/sodipodi-0.dtd"
   xmlns:inkscape="http://www.inkscape.org/namespaces/inkscape"
   width="126.3901mm"
   height="148.60046mm"
   viewBox="0 0 126.3901 148.60046"
   version="1.1"
   id="svg1698"
   sodipodi:docname="pyflies-logo.svg"
   inkscape:export-filename="/home/igor/repos/pyflies/pyflies/art/pyflies-logo-github.png"
   inkscape:export-xdpi="31.160294"
   inkscape:export-ydpi="31.160294"
   inkscape:version="1.0.1 (3bc2e813f5, 2020-09-07)">
  <defs
     id="defs1692">
    <rect
       x="41.056995"
       y="80.169212"
       width="11.061112"
       height="19.225266"
       id="rect1448-5" />
    <rect
       x="41.056995"
       y="80.169212"
       width="11.061112"
       height="19.225266"
       id="rect2270" />
  </defs>
  <sodipodi:namedview
     id="base"
     pagecolor="#ffffff"
     bordercolor="#666666"
     borderopacity="1.0"
     inkscape:pageopacity="0.0"
     inkscape:pageshadow="2"
     inkscape:zoom="0.49497474"
     inkscape:cx="195.05329"
     inkscape:cy="533.7243"
     inkscape:document-units="mm"
     inkscape:current-layer="layer1"
     inkscape:document-rotation="0"
     showgrid="false"
     inkscape:window-width="1916"
     inkscape:window-height="1158"
     inkscape:window-x="0"
     inkscape:window-y="18"
     inkscape:window-maximized="1"
     fit-margin-top="0"
     fit-margin-left="0"
     fit-margin-right="0"
     fit-margin-bottom="0" />
  <metadata
     id="metadata1695">
    <rdf:RDF>
      <cc:Work
         rdf:about="">
        <dc:format>image/svg+xml</dc:format>
        <dc:type
           rdf:resource="http://purl.org/dc/dcmitype/StillImage" />
        <dc:title />
      </cc:Work>
    </rdf:RDF>
  </metadata>
  <g
     inkscape:label="Layer 1"
     inkscape:groupmode="layer"
     id="layer1"
     transform="translate(-47.824613,-36.653171)">
    <path
       d="m 114.15069,48.245433 c 9.67896,0.95261 18.86785,4.276693 25.73538,9.335542 2.76131,2.028046 6.59931,5.963803 8.45564,8.700034 0.85484,1.245907 2.15087,3.494555 2.85906,5.009955 2.07692,4.32558 2.78638,7.088138 3.9107,15.324408 1.19702,8.554653 3.81292,15.617718 7.1859,19.429388 2.76257,3.10476 3.64247,5.40228 2.9581,7.82266 -0.75833,2.68859 -2.83527,4.204 -6.0127,4.35065 -0.97768,0.0488 -1.66204,0.19552 -1.63698,0.34217 0.366,1.8814 0.61042,4.5462 0.46377,5.2544 -0.0978,0.51264 -0.53772,1.39254 -0.97767,1.97914 -0.73327,0.97768 -0.80596,1.19702 -0.68438,2.32134 0.17172,1.78365 -0.0978,2.8102 -1.05037,4.08117 -0.80597,1.05037 -0.85482,1.17322 -1.00274,3.83675 -0.21935,4.17892 -0.85484,5.84097 -3.12856,8.21246 -1.5881,1.63697 -3.69009,2.85908 -6.13428,3.47074 -2.29753,0.5866 -3.81292,0.61042 -7.35637,0.12158 -1.46651,-0.21935 -3.00571,-0.31711 -3.44567,-0.2444 -0.61168,0.0978 -1.27098,0.68435 -2.85907,2.46799 -3.49456,3.91068 -4.05735,5.32831 -4.05735,10.36208 -0.0252,5.4261 -0.85484,9.16508 -2.29752,10.04498 -0.4149,0.24442 -0.97769,0.46502 -1.24593,0.46502 -0.78213,0 -43.430033,-12.68471 -44.065516,-13.09959 -0.953858,-0.63547 -1.075445,-1.36873 -0.758323,-4.98612 0.465017,-5.30326 -0.04886,-11.36484 -1.392558,-16.83981 -1.588101,-6.45264 -3.983395,-11.85367 -9.434553,-21.28696 -4.863296,-8.45689 -6.012698,-10.97377 -6.818651,-15.031127 -0.807203,-4.106226 -0.195536,-15.177758 1.270971,-22.485247 1.735998,-8.676232 7.528091,-16.10655 16.839808,-21.580275 5.69433,-3.347904 12.904043,-5.792092 20.407064,-6.916406 3.690098,-0.560293 10.901068,-0.780891 14.272798,-0.462522 z m -13.4167,5.522601 c -10.72935,1.392557 -19.698884,5.377217 -25.809347,11.462609 -3.715151,3.690092 -5.817154,7.258597 -6.9653,11.828598 -0.782139,3.152369 -1.734741,10.875996 -1.857576,15.324412 -0.21935,6.867529 0.488841,9.165067 5.572744,17.987947 6.036513,10.48494 7.405248,13.24623 9.336787,18.91675 2.321347,6.81864 3.177434,11.80477 3.226319,19.28273 l 0.04886,5.37721 18.770093,5.57275 c 10.31446,3.0546 18.79389,5.52384 18.86784,5.47495 0.0488,-0.0488 0.17048,-2.17469 0.29331,-4.71662 0.17172,-4.0323 0.2933,-4.86331 0.85484,-6.57424 0.83102,-2.41913 1.66203,-3.81294 3.88563,-6.42759 2.3953,-2.83525 3.83675,-4.08117 5.23056,-4.47224 1.41762,-0.41487 4.03228,-0.41487 7.23353,0.0252 4.64395,0.61167 7.38144,-0.17173 8.82289,-2.51689 0.68436,-1.09926 0.75831,-1.44142 0.90371,-4.2767 0.22062,-4.13004 0.36601,-4.7906 1.39381,-6.11045 l 0.85485,-1.12433 -0.66057,-1.14939 c -0.34217,-0.63548 -0.63548,-1.49031 -0.63548,-1.8814 0,-0.95385 1.02656,-2.1747 2.02806,-2.44418 0.97766,-0.24443 0.97766,-0.46503 0.17172,-4.76553 -0.58661,-3.07969 -0.58661,-3.12856 -0.14667,-3.95959 0.6355,-1.14814 1.85759,-1.56428 5.27945,-1.78363 3.54343,-0.2206 3.6412,-0.39106 1.36875,-2.90793 -1.90648,-2.12962 -2.76131,-3.35172 -3.86056,-5.57529 -2.46801,-4.937262 -4.2767,-11.511497 -5.32832,-19.552235 -0.73327,-5.498793 -1.73477,-9.018417 -3.66629,-12.831344 -1.8087,-3.543439 -5.35215,-7.674731 -8.87176,-10.362083 -8.84671,-6.697066 -22.43636,-9.62883 -36.3419,-7.821397 z"
       id="path4"
       style="stroke-width:0.0125342" />
    <g
       id="g879"
       transform="matrix(0.24733121,0,0,0.24733121,34.341818,-82.453134)">
      <path
         d="m 337.39364,642.7843 c 3.02139,0.54952 3.84668,1.68682 4.35595,6.08303 0.62803,4.98398 0.51128,4.74847 2.55037,5.61201 l 1.88409,0.78504 2.51212,-2.00084 c 6.04479,-4.71022 6.71106,-4.63172 12.75585,1.49157 5.41676,5.45501 5.57377,6.55406 1.68683,11.5783 -2.39336,3.14015 -2.43362,3.1784 -2.00084,4.63172 0.74679,2.35512 0.90178,2.47187 5.06248,3.02139 6.75133,0.86354 6.98684,1.17756 6.98684,9.61571 0,8.3999 -0.39252,8.90917 -7.45786,9.81297 -1.92435,0.23551 -3.64942,0.62803 -3.76818,0.86354 -0.15701,0.19726 -0.47102,1.09905 -0.74478,1.92233 -0.50927,1.49158 -0.50927,1.52982 1.64858,4.35596 3.61117,4.78873 3.72792,5.41676 1.88409,8.24289 -1.45131,2.15785 -6.51581,7.06534 -8.28114,8.00739 -1.96259,0.9823 -3.49241,0.51128 -7.02508,-2.23636 l -3.18041,-2.43361 -1.49157,0.51128 c -0.82328,0.27577 -1.72708,0.62803 -1.96259,0.74478 -0.23552,0.15701 -0.62803,1.88409 -0.86355,3.80642 -0.82328,6.98684 -1.37281,7.4176 -9.77271,7.4176 -8.35964,0 -8.71392,-0.27577 -9.65596,-6.94657 -0.31402,-2.19811 -0.78504,-4.1607 -1.05879,-4.31771 -0.23552,-0.15701 -1.13932,-0.50927 -1.92435,-0.78504 -1.45132,-0.43076 -1.49158,-0.39252 -4.63173,2.00285 -3.53266,2.74764 -5.06248,3.21866 -7.06533,2.19811 -1.60832,-0.82328 -7.45786,-6.59432 -8.59516,-8.43815 -1.45131,-2.39336 -1.2158,-3.17839 2.31485,-7.85037 l 2.23837,-2.94289 -0.78504,-1.84383 -0.74679,-1.80559 -3.37566,-0.47102 c -4.74847,-0.58777 -5.02424,-0.66628 -6.16154,-1.68682 -1.33457,-1.17756 -1.92234,-4.43446 -1.64858,-9.69421 0.19726,-4.43446 0.78504,-6.2803 2.31687,-7.10359 0.43076,-0.23551 2.59062,-0.66627 4.71022,-0.94204 2.15785,-0.27577 3.96344,-0.58777 4.04194,-0.66829 0.0785,-0.0785 0.50927,-0.90179 0.94204,-1.84383 l 0.74478,-1.72709 -2.51212,-3.29715 c -2.62887,-3.49241 -3.14015,-4.59147 -2.74763,-6.2018 0.54953,-2.15785 8.08589,-9.69421 10.28198,-10.24374 1.53183,-0.39251 2.59063,0.0785 6.1233,2.74764 l 3.34144,2.50809 1.72708,-0.74679 c 0.94205,-0.43278 1.76533,-0.82328 1.80559,-0.90179 0.0785,-0.0382 0.35226,-1.88409 0.66627,-4.04194 0.62803,-4.59146 0.98231,-5.3765 2.66913,-6.24004 1.45131,-0.74679 9.22319,-1.09905 12.20633,-0.54952 z m -6.82983,9.6157 c -0.15701,0.86354 -0.39252,2.59062 -0.54952,3.84668 -0.31402,2.86439 -1.49158,4.31771 -3.96344,4.94574 -0.9823,0.27577 -3.02139,1.0588 -4.51296,1.80559 -3.72792,1.92233 -4.39621,1.84383 -8.24289,-1.02055 -3.33541,-2.47186 -3.84669,-2.59063 -4.82899,-1.0588 -0.27376,0.50927 0.15701,1.33457 2.0411,3.84669 2.90464,3.80643 2.98314,4.43446 1.0608,8.20264 -0.74679,1.49157 -1.53183,3.53267 -1.80558,4.51296 -0.66829,2.74763 -1.92435,3.57091 -6.1233,4.1607 -1.88409,0.23551 -3.68967,0.50926 -3.96343,0.58978 -0.50927,0.19525 -0.66628,2.39336 -0.15701,2.70737 0.19526,0.11877 1.9626,0.39252 3.96344,0.66628 4.35595,0.54953 5.57376,1.37281 6.2803,4.12044 0.27375,0.98029 1.05879,3.02139 1.80558,4.51296 1.88409,3.72792 1.80559,4.39621 -0.9823,8.16439 -1.29431,1.76533 -2.35511,3.3354 -2.35511,3.49241 0,0.19526 0.39252,0.70654 0.86354,1.17756 l 0.90179,0.82328 2.90463,-2.31485 c 3.68968,-2.94289 4.94574,-3.2569 7.69337,-1.80559 1.0588,0.58777 3.2569,1.52982 4.86724,2.1196 1.80558,0.66829 3.17839,1.41307 3.61117,2.0411 0.43278,0.58777 0.90179,2.43362 1.21781,4.71023 l 0.50927,3.72993 h 1.37483 1.3728 l 0.58778,-4.00369 c 0.43076,-2.62887 0.86354,-4.27745 1.33456,-4.78873 0.39252,-0.43076 1.88409,-1.17756 3.3354,-1.64858 1.41307,-0.47102 3.57092,-1.37482 4.74848,-2.00285 2.90463,-1.57008 4.00369,-1.33457 7.85037,1.61033 l 3.02139,2.35511 0.86354,-0.90178 c 0.43278,-0.47102 0.8253,-1.02055 0.8253,-1.17756 0,-0.15701 -1.06081,-1.72708 -2.35512,-3.45416 -2.70737,-3.61118 -2.82613,-4.27745 -1.2158,-7.37936 0.58777,-1.17755 1.49157,-3.3354 1.9626,-4.78873 1.17755,-3.49241 1.88409,-4.00369 6.39705,-4.59146 2.00084,-0.27577 3.80642,-0.62803 3.96343,-0.78504 0.19525,-0.19525 0.27577,-0.82328 0.19525,-1.45131 -0.11675,-1.09905 -0.157,-1.1373 -3.84668,-1.64858 -2.27661,-0.31402 -4.12044,-0.78504 -4.71023,-1.21782 -0.62803,-0.47102 -1.41306,-1.88409 -2.1981,-4.00369 -0.66628,-1.80558 -1.60832,-3.96343 -2.1196,-4.78873 -1.25606,-2.1196 -0.90179,-3.57091 1.80558,-7.14384 1.76533,-2.35511 2.19811,-3.14015 1.88409,-3.64942 -0.98029,-1.52982 -1.49157,-1.41307 -4.82697,1.0588 -3.84669,2.86438 -4.51296,2.94288 -8.2429,1.02055 -1.49157,-0.7468 -3.53267,-1.52982 -4.51296,-1.80559 -2.74763,-0.66628 -3.53267,-1.88409 -4.1607,-6.2803 -0.27375,-2.0411 -0.54952,-3.84669 -0.66627,-4.00369 -0.11675,-0.15701 -0.74679,-0.27577 -1.41307,-0.19727 -1.09704,0.12077 -1.25405,0.27778 -1.48956,1.69085 z"
         id="path6"
         style="stroke-width:0.0201292" />
      <path
         d="m 337.55065,666.72593 c 8.12413,2.90464 13.61939,11.5783 12.28483,19.30991 -1.64858,9.5372 -11.22604,16.75955 -20.13521,15.22772 -5.65227,-0.98029 -11.10728,-5.18125 -13.65965,-10.441 -1.09906,-2.31485 -1.33457,-3.2569 -1.45132,-6.2803 -0.23551,-5.3765 1.2158,-9.18494 4.98398,-13.06987 2.23636,-2.27661 4.19895,-3.57092 7.22235,-4.66997 2.9449,-1.09704 7.77187,-1.1373 10.75502,-0.0765 z m -9.69421,8.28114 c -2.35511,1.0588 -3.09989,1.76533 -4.1607,4.0822 -1.64858,3.45416 -1.13931,8.24289 1.05879,10.95027 1.72709,2.04109 4.0037,2.98314 7.3391,2.98314 6.24004,0 9.4587,-3.21866 9.49895,-9.3802 0,-4.55321 -1.92233,-7.61486 -5.57376,-8.94942 -2.1196,-0.74478 -6.16154,-0.58778 -8.16238,0.31401 z"
         id="path8"
         style="stroke-width:0.0201292" />
    </g>
    <text
       xml:space="preserve"
       id="text1446-5"
       style="font-style:normal;font-variant:normal;font-weight:normal;font-stretch:normal;font-size:10.5833px;line-height:1.25;font-family:'Bitstream Vera Sans Mono';-inkscape-font-specification:'Bitstream Vera Sans Mono, Normal';font-variant-ligatures:normal;font-variant-caps:normal;font-variant-numeric:normal;font-variant-east-asian:normal;letter-spacing:0px;word-spacing:0px;white-space:pre;shape-inside:url(#rect1448-5);opacity:0.851111;fill:#800000;fill-opacity:1;stroke:none;stroke-width:0.999979;stroke-miterlimit:4;stroke-dasharray:none;"
       transform="matrix(11.623157,0,0,11.623157,-399.94513,-890.16255)"><tspan
         x="41.056641"
         y="89.533662"><tspan
           style="font-style:normal;font-variant:normal;font-weight:normal;font-stretch:normal;font-size:10.5833px;font-family:'Bitstream Vera Sans Mono';-inkscape-font-specification:'Bitstream Vera Sans Mono, Normal';font-variant-ligatures:normal;font-variant-caps:normal;font-variant-numeric:normal;font-variant-east-asian:normal;fill:#800000;stroke-width:0.999979;stroke-miterlimit:4;stroke-dasharray:none">P</tspan></tspan></text>
  </g>
</svg>
