<?xml version="1.0" encoding="UTF-8" standalone="no"?>
<svg
   xmlns:dc="http://purl.org/dc/elements/1.1/"
   xmlns:cc="http://creativecommons.org/ns#"
   xmlns:rdf="http://www.w3.org/1999/02/22-rdf-syntax-ns#"
   xmlns:svg="http://www.w3.org/2000/svg"
   xmlns="http://www.w3.org/2000/svg"
   xmlns:sodipodi="http://sodipodi.sourceforge.net/DTD/sodipodi-0.dtd"
   xmlns:inkscape="http://www.inkscape.org/namespaces/inkscape"
   width="126.3901mm"
   height="148.60046mm"
   viewBox="0 0 126.3901 148.60046"
   version="1.1"
   id="svg1698"
   sodipodi:docname="pyflies-logo2.svg"
   inkscape:export-filename="/home/igor/repos/pyflies/pyflies/art/pyflies-logo2.png"
   inkscape:export-xdpi="21.905197"
   inkscape:export-ydpi="21.905197"
   inkscape:version="1.0.1 (3bc2e813f5, 2020-09-07)">
  <defs
     id="defs1692">
    <rect
       x="41.056995"
       y="80.169212"
       width="11.061112"
       height="19.225266"
       id="rect1448-5" />
    <rect
       x="41.056995"
       y="80.169212"
       width="11.061112"
       height="19.225266"
       id="rect2270" />
  </defs>
  <sodipodi:namedview
     id="base"
     pagecolor="#ffffff"
     bordercolor="#666666"
     borderopacity="1.0"
     inkscape:pageopacity="0.0"
     inkscape:pageshadow="2"
     inkscape:zoom="0.24748737"
     inkscape:cx="98.887027"
     inkscape:cy="525.17772"
     inkscape:document-units="mm"
     inkscape:current-layer="layer1"
     inkscape:document-rotation="0"
     showgrid="false"
     inkscape:window-width="1916"
     inkscape:window-height="1158"
     inkscape:window-x="0"
     inkscape:window-y="18"
     inkscape:window-maximized="1"
     fit-margin-top="0"
     fit-margin-left="0"
     fit-margin-right="0"
     fit-margin-bottom="0" />
  <metadata
     id="metadata1695">
    <rdf:RDF>
      <cc:Work
         rdf:about="">
        <dc:format>image/svg+xml</dc:format>
        <dc:type
           rdf:resource="http://purl.org/dc/dcmitype/StillImage" />
        <dc:title></dc:title>
      </cc:Work>
    </rdf:RDF>
  </metadata>
  <g
     inkscape:label="Layer 1"
     inkscape:groupmode="layer"
     id="layer1"
     transform="translate(-47.824613,-36.653171)">
    <path
       d="m 112.12246,36.830586 c 11.70923,1.15243 22.82557,5.17377 31.13363,11.29376 3.34051,2.45345 7.98357,7.21477 10.22928,10.52495 1.03415,1.50725 2.60205,4.227574 3.45878,6.060842 2.51259,5.232913 3.37084,8.574945 4.73101,18.538851 1.44811,10.349072 4.61272,18.893681 8.69321,23.504901 3.34203,3.75599 4.40651,6.53544 3.57858,9.46352 -0.91739,3.25256 -3.42998,5.08583 -7.27391,5.26324 -1.18276,0.0591 -2.01068,0.23654 -1.98035,0.41396 0.44277,2.27603 0.73846,5.49979 0.56105,6.35653 -0.11828,0.62018 -0.65052,1.68466 -1.18276,2.39431 -0.88706,1.18275 -0.97501,1.44811 -0.82792,2.80826 0.20774,2.15777 -0.11828,3.39966 -1.2707,4.93723 -0.97501,1.2707 -1.03415,1.4193 -1.21308,4.64154 -0.26536,5.0555 -1.03415,7.06617 -3.7848,9.9351 -1.92121,1.98035 -4.46413,3.4588 -7.421,4.19877 -2.77946,0.70965 -4.61273,0.73846 -8.89944,0.14708 -1.77413,-0.26536 -3.6362,-0.38363 -4.16844,-0.29568 -0.73998,0.11827 -1.53757,0.82792 -3.45879,2.98568 -4.22757,4.731 -4.90841,6.44599 -4.90841,12.53564 -0.0304,6.56427 -1.03415,11.08754 -2.77946,12.152 -0.50191,0.29569 -1.18275,0.56257 -1.50725,0.56257 -0.9462,0 -52.539906,-15.34543 -53.308686,-15.84734 -1.15394,-0.76878 -1.30103,-1.65585 -0.91739,-6.03202 0.56256,-6.41567 -0.0591,-13.74873 -1.68466,-20.37212 -1.92122,-7.80615 -4.81895,-14.34009 -11.41354,-25.75212 -5.88342,-10.23079 -7.27392,-13.27562 -8.24893,-18.184031 -0.97652,-4.967552 -0.23655,-18.361443 1.53757,-27.201749 2.10014,-10.496154 9.10718,-19.485054 20.37212,-26.106944 6.88877,-4.05016 15.61079,-7.00704 24.68764,-8.36719 4.46413,-0.67782 13.187666,-0.94469 17.266646,-0.55954 z m -16.230976,6.68102 c -12.97993,1.68466 -23.83091,6.50514 -31.2231,13.867 -4.49444,4.464125 -7.03736,8.78116 -8.42634,14.309761 -0.9462,3.813609 -2.09862,13.157341 -2.24722,18.538854 -0.26536,8.308063 0.59138,11.087529 6.74168,21.761089 7.30273,12.68425 8.95857,16.02476 11.29527,22.88471 2.80827,8.24893 3.84393,14.28095 3.90307,23.32748 l 0.0591,6.50512 22.7073,6.74169 c 12.478016,3.69534 22.736096,6.68253 22.825556,6.62339 0.0591,-0.0591 0.20623,-2.63086 0.35483,-5.706 0.20774,-4.8781 0.35483,-5.88343 1.03415,-7.95324 1.00534,-2.92656 2.01067,-4.61273 4.70068,-7.77583 2.89774,-3.42997 4.64154,-4.93723 6.32771,-5.41033 1.71499,-0.5019 4.87809,-0.5019 8.75084,0.0304 5.61807,0.73996 8.92977,-0.20775 10.67357,-3.04484 0.82792,-1.32984 0.91739,-1.74378 1.09329,-5.17377 0.26687,-4.99636 0.44277,-5.79548 1.68617,-7.39218 l 1.03415,-1.36017 -0.79912,-1.39049 c -0.41396,-0.76879 -0.76878,-1.80293 -0.76878,-2.27603 0,-1.15395 1.24189,-2.63087 2.45345,-2.95688 1.18275,-0.2957 1.18275,-0.56256 0.20774,-5.76515 -0.70965,-3.72567 -0.70965,-3.78481 -0.17742,-4.79015 0.76879,-1.38898 2.24723,-1.8924 6.38686,-2.15775 4.28671,-0.26688 4.40498,-0.47311 1.65585,-3.51793 -2.30637,-2.57631 -3.34051,-4.05475 -4.67035,-6.74475 -2.98569,-5.972891 -5.17377,-13.926134 -6.44599,-23.653492 C 154.13736,74.3799 152.9258,70.122 150.58912,65.509275 c -2.18809,-4.286709 -6.47481,-9.284579 -10.73271,-12.535629 -10.70238,-8.10184 -27.1426,-11.64857 -43.964956,-9.46201 z"
       id="path4"
       style="stroke-width:0.0151635" />
    <g
       id="g879"
       transform="matrix(0.29921131,0,0,0.29921131,15.57292,-121.28326)">
      <path
         d="m 337.39364,642.7843 c 3.02139,0.54952 3.84668,1.68682 4.35595,6.08303 0.62803,4.98398 0.51128,4.74847 2.55037,5.61201 l 1.88409,0.78504 2.51212,-2.00084 c 6.04479,-4.71022 6.71106,-4.63172 12.75585,1.49157 5.41676,5.45501 5.57377,6.55406 1.68683,11.5783 -2.39336,3.14015 -2.43362,3.1784 -2.00084,4.63172 0.74679,2.35512 0.90178,2.47187 5.06248,3.02139 6.75133,0.86354 6.98684,1.17756 6.98684,9.61571 0,8.3999 -0.39252,8.90917 -7.45786,9.81297 -1.92435,0.23551 -3.64942,0.62803 -3.76818,0.86354 -0.15701,0.19726 -0.47102,1.09905 -0.74478,1.92233 -0.50927,1.49158 -0.50927,1.52982 1.64858,4.35596 3.61117,4.78873 3.72792,5.41676 1.88409,8.24289 -1.45131,2.15785 -6.51581,7.06534 -8.28114,8.00739 -1.96259,0.9823 -3.49241,0.51128 -7.02508,-2.23636 l -3.18041,-2.43361 -1.49157,0.51128 c -0.82328,0.27577 -1.72708,0.62803 -1.96259,0.74478 -0.23552,0.15701 -0.62803,1.88409 -0.86355,3.80642 -0.82328,6.98684 -1.37281,7.4176 -9.77271,7.4176 -8.35964,0 -8.71392,-0.27577 -9.65596,-6.94657 -0.31402,-2.19811 -0.78504,-4.1607 -1.05879,-4.31771 -0.23552,-0.15701 -1.13932,-0.50927 -1.92435,-0.78504 -1.45132,-0.43076 -1.49158,-0.39252 -4.63173,2.00285 -3.53266,2.74764 -5.06248,3.21866 -7.06533,2.19811 -1.60832,-0.82328 -7.45786,-6.59432 -8.59516,-8.43815 -1.45131,-2.39336 -1.2158,-3.17839 2.31485,-7.85037 l 2.23837,-2.94289 -0.78504,-1.84383 -0.74679,-1.80559 -3.37566,-0.47102 c -4.74847,-0.58777 -5.02424,-0.66628 -6.16154,-1.68682 -1.33457,-1.17756 -1.92234,-4.43446 -1.64858,-9.69421 0.19726,-4.43446 0.78504,-6.2803 2.31687,-7.10359 0.43076,-0.23551 2.59062,-0.66627 4.71022,-0.94204 2.15785,-0.27577 3.96344,-0.58777 4.04194,-0.66829 0.0785,-0.0785 0.50927,-0.90179 0.94204,-1.84383 l 0.74478,-1.72709 -2.51212,-3.29715 c -2.62887,-3.49241 -3.14015,-4.59147 -2.74763,-6.2018 0.54953,-2.15785 8.08589,-9.69421 10.28198,-10.24374 1.53183,-0.39251 2.59063,0.0785 6.1233,2.74764 l 3.34144,2.50809 1.72708,-0.74679 c 0.94205,-0.43278 1.76533,-0.82328 1.80559,-0.90179 0.0785,-0.0382 0.35226,-1.88409 0.66627,-4.04194 0.62803,-4.59146 0.98231,-5.3765 2.66913,-6.24004 1.45131,-0.74679 9.22319,-1.09905 12.20633,-0.54952 z m -6.82983,9.6157 c -0.15701,0.86354 -0.39252,2.59062 -0.54952,3.84668 -0.31402,2.86439 -1.49158,4.31771 -3.96344,4.94574 -0.9823,0.27577 -3.02139,1.0588 -4.51296,1.80559 -3.72792,1.92233 -4.39621,1.84383 -8.24289,-1.02055 -3.33541,-2.47186 -3.84669,-2.59063 -4.82899,-1.0588 -0.27376,0.50927 0.15701,1.33457 2.0411,3.84669 2.90464,3.80643 2.98314,4.43446 1.0608,8.20264 -0.74679,1.49157 -1.53183,3.53267 -1.80558,4.51296 -0.66829,2.74763 -1.92435,3.57091 -6.1233,4.1607 -1.88409,0.23551 -3.68967,0.50926 -3.96343,0.58978 -0.50927,0.19525 -0.66628,2.39336 -0.15701,2.70737 0.19526,0.11877 1.9626,0.39252 3.96344,0.66628 4.35595,0.54953 5.57376,1.37281 6.2803,4.12044 0.27375,0.98029 1.05879,3.02139 1.80558,4.51296 1.88409,3.72792 1.80559,4.39621 -0.9823,8.16439 -1.29431,1.76533 -2.35511,3.3354 -2.35511,3.49241 0,0.19526 0.39252,0.70654 0.86354,1.17756 l 0.90179,0.82328 2.90463,-2.31485 c 3.68968,-2.94289 4.94574,-3.2569 7.69337,-1.80559 1.0588,0.58777 3.2569,1.52982 4.86724,2.1196 1.80558,0.66829 3.17839,1.41307 3.61117,2.0411 0.43278,0.58777 0.90179,2.43362 1.21781,4.71023 l 0.50927,3.72993 h 1.37483 1.3728 l 0.58778,-4.00369 c 0.43076,-2.62887 0.86354,-4.27745 1.33456,-4.78873 0.39252,-0.43076 1.88409,-1.17756 3.3354,-1.64858 1.41307,-0.47102 3.57092,-1.37482 4.74848,-2.00285 2.90463,-1.57008 4.00369,-1.33457 7.85037,1.61033 l 3.02139,2.35511 0.86354,-0.90178 c 0.43278,-0.47102 0.8253,-1.02055 0.8253,-1.17756 0,-0.15701 -1.06081,-1.72708 -2.35512,-3.45416 -2.70737,-3.61118 -2.82613,-4.27745 -1.2158,-7.37936 0.58777,-1.17755 1.49157,-3.3354 1.9626,-4.78873 1.17755,-3.49241 1.88409,-4.00369 6.39705,-4.59146 2.00084,-0.27577 3.80642,-0.62803 3.96343,-0.78504 0.19525,-0.19525 0.27577,-0.82328 0.19525,-1.45131 -0.11675,-1.09905 -0.157,-1.1373 -3.84668,-1.64858 -2.27661,-0.31402 -4.12044,-0.78504 -4.71023,-1.21782 -0.62803,-0.47102 -1.41306,-1.88409 -2.1981,-4.00369 -0.66628,-1.80558 -1.60832,-3.96343 -2.1196,-4.78873 -1.25606,-2.1196 -0.90179,-3.57091 1.80558,-7.14384 1.76533,-2.35511 2.19811,-3.14015 1.88409,-3.64942 -0.98029,-1.52982 -1.49157,-1.41307 -4.82697,1.0588 -3.84669,2.86438 -4.51296,2.94288 -8.2429,1.02055 -1.49157,-0.7468 -3.53267,-1.52982 -4.51296,-1.80559 -2.74763,-0.66628 -3.53267,-1.88409 -4.1607,-6.2803 -0.27375,-2.0411 -0.54952,-3.84669 -0.66627,-4.00369 -0.11675,-0.15701 -0.74679,-0.27577 -1.41307,-0.19727 -1.09704,0.12077 -1.25405,0.27778 -1.48956,1.69085 z"
         id="path6"
         style="stroke-width:0.0201292" />
      <path
         d="m 337.55065,666.72593 c 8.12413,2.90464 13.61939,11.5783 12.28483,19.30991 -1.64858,9.5372 -11.22604,16.75955 -20.13521,15.22772 -5.65227,-0.98029 -11.10728,-5.18125 -13.65965,-10.441 -1.09906,-2.31485 -1.33457,-3.2569 -1.45132,-6.2803 -0.23551,-5.3765 1.2158,-9.18494 4.98398,-13.06987 2.23636,-2.27661 4.19895,-3.57092 7.22235,-4.66997 2.9449,-1.09704 7.77187,-1.1373 10.75502,-0.0765 z m -9.69421,8.28114 c -2.35511,1.0588 -3.09989,1.76533 -4.1607,4.0822 -1.64858,3.45416 -1.13931,8.24289 1.05879,10.95027 1.72709,2.04109 4.0037,2.98314 7.3391,2.98314 6.24004,0 9.4587,-3.21866 9.49895,-9.3802 0,-4.55321 -1.92233,-7.61486 -5.57376,-8.94942 -2.1196,-0.74478 -6.16154,-0.58778 -8.16238,0.31401 z"
         id="path8"
         style="stroke-width:0.0201292" />
    </g>
    <text
       xml:space="preserve"
       id="text1446-5"
       style="font-style:normal;font-variant:normal;font-weight:normal;font-stretch:normal;font-size:10.5833px;line-height:1.25;font-family:'Bitstream Vera Sans Mono';-inkscape-font-specification:'Bitstream Vera Sans Mono, Normal';font-variant-ligatures:normal;font-variant-caps:normal;font-variant-numeric:normal;font-variant-east-asian:normal;letter-spacing:0px;word-spacing:0px;white-space:pre;shape-inside:url(#rect1448-5);opacity:0.851111;fill:#800000;fill-opacity:1;stroke:none;stroke-width:0.999979;stroke-miterlimit:4;stroke-dasharray:none;"
       transform="matrix(14.061226,0,0,14.061226,-509.8099,-1098.4175)"><tspan
         x="41.056641"
         y="89.533662"><tspan
           style="font-style:normal;font-variant:normal;font-weight:normal;font-stretch:normal;font-size:10.5833px;font-family:'Bitstream Vera Sans Mono';-inkscape-font-specification:'Bitstream Vera Sans Mono, Normal';font-variant-ligatures:normal;font-variant-caps:normal;font-variant-numeric:normal;font-variant-east-asian:normal;fill:#800000;stroke-width:0.999979;stroke-miterlimit:4;stroke-dasharray:none">P</tspan></tspan></text>
  </g>
</svg>
